<svg width="1920" height="1080" viewBox="0 0 1920 1080" fill="none" xmlns="http://www.w3.org/2000/svg">
<g clip-path="url(#clip0_141_3)">
<rect width="1920" height="1080" fill="#050808"/>
<path d="M695.982 372.497C642.78 323.905 557.45 385.089 529.21 451.385C518.61 476.271 514.223 493.206 518.804 519.865C533.219 603.76 723.516 542.979 727.748 457.959C729.518 422.396 722.27 396.507 695.982 372.497Z" stroke="white" stroke-width="2"/>
<path d="M709.912 356.74C646.625 299.141 545.118 371.666 511.525 450.252C498.915 479.75 493.697 499.824 499.146 531.425C516.294 630.871 742.666 558.824 747.7 458.045C749.806 415.889 741.183 385.201 709.912 356.74Z" stroke="white"/>
<path d="M694.571 305.994C609.881 274.604 506.37 343.196 465.202 381.416C401.449 456.839 470.142 617.317 543.775 654.44C617.409 691.564 1000.4 597.815 1032.63 566.33C1064.86 534.846 941.584 464.592 941.584 464.592C941.584 464.592 800.434 345.233 694.571 305.994Z" stroke="white" stroke-width="2"/>
<path d="M1900.8 1255.93C2049.92 1222.13 2087.89 1002.17 2088.24 896.412C2066.87 705.521 1763.79 507.415 1620.88 520.379C1477.97 533.343 1121.58 1079.89 1123.42 1165.29C1125.26 1250.7 1375.44 1242.53 1375.44 1242.53C1375.44 1242.53 1714.41 1298.18 1900.8 1255.93Z" stroke="white"/>
<path d="M689.222 284.958C594.335 249.783 478.361 326.645 432.236 369.472C360.807 453.986 437.771 633.81 520.27 675.408C602.769 717.007 1031.87 611.957 1067.98 576.677C1104.09 541.397 965.976 462.675 965.976 462.675C965.976 462.675 807.83 328.926 689.222 284.958Z" stroke="white"/>
<path d="M685.507 270.615C583.539 232.86 458.911 315.359 409.343 361.328C332.584 452.042 415.291 645.055 503.947 689.705C592.602 734.355 1053.73 621.599 1092.53 583.731C1131.33 545.864 982.914 461.367 982.914 461.367C982.914 461.367 812.967 317.809 685.507 270.615Z" stroke="white"/>
<path d="M587 475.657C598.192 441.592 627.926 383.11 657.321 421.703C694.066 469.944 587 529.611 587 475.657Z" stroke="white"/>
<path d="M514.146 166.655C389.416 150.246 372.298 259.874 379.33 316.739V391.28C379.33 445.31 238.855 447.812 207.466 562.376C176.078 676.939 657.709 814.016 783.263 825.522C908.816 837.028 1296.28 637.918 1343.62 539.363C1390.96 440.808 1114.13 345.255 968.506 354.26C822.884 363.265 670.059 187.167 514.146 166.655Z" stroke="white"/>
<path d="M479 97.5001C335.5 78.6085 311.323 224.227 319.413 289.695V369.5C319.413 431.704 157.798 440.597 121.687 572.493C85.575 704.389 636.053 881.253 780.5 894.5C924.947 907.747 1374.35 659.463 1428.81 545.999C1483.28 432.534 1115.53 279.327 948 289.695C780.465 300.062 658.375 121.115 479 97.5001Z" stroke="white" stroke-width="2"/>
<path d="M468.501 72.7581C320.009 52.949 294.99 205.64 303.362 274.287V357.968C303.362 423.193 136.125 432.518 98.7565 570.82C61.3884 709.121 631.019 894.575 780.491 908.465C929.964 922.356 1395 662.014 1451.36 543.038C1507.72 424.063 1127.18 263.416 953.819 274.287C780.455 285.158 654.117 97.5194 468.501 72.7581Z" stroke="white"/>
<path d="M448.086 44.8755C289.767 23.7427 263.093 186.637 272.019 259.872V349.145C272.019 418.729 93.7138 428.677 53.8728 576.22C14.0317 723.764 621.358 921.611 780.722 936.43C940.086 951.248 1435.9 673.509 1495.99 546.583C1556.08 419.657 1150.36 248.274 965.52 259.872C780.684 271.469 645.985 71.2916 448.086 44.8755Z" stroke="white"/>
<path d="M1280 487C1278 439 1165.5 461.5 1141 471C1116.5 480.5 1119.28 501.429 1117.5 524C1112.37 588.882 1282.5 547 1280 487Z" stroke="white"/>
<path d="M865.5 523.5C893.666 513.5 948.4 500.3 942 527.5C934 561.5 823.5 573.5 865.5 523.5Z" stroke="white"/>
<path d="M855.4 519.948C892.192 506.826 963.686 489.505 955.326 525.197C944.876 569.812 800.539 585.558 855.4 519.948Z" stroke="white"/>
<path d="M1610.49 826.957C1581.07 859.764 1529.6 876.476 1507.54 880.732C1489.35 882.795 1445.07 897.135 1413.49 937.989C1374.01 989.055 1558.63 991.377 1610.49 996.793C1662.35 1002.21 1746.34 900.075 1756.4 857.133C1766.46 814.191 1647.26 785.949 1610.49 826.957Z" stroke="white"/>
<path d="M1627.52 857.764C1610.16 877.103 1579.77 886.955 1566.75 889.463C1556.02 890.679 1529.88 899.132 1511.24 923.214C1487.94 953.317 1596.91 954.685 1627.52 957.878C1658.13 961.07 1707.71 900.866 1713.65 875.552C1719.59 850.239 1649.22 833.591 1627.52 857.764Z" stroke="white" stroke-width="2"/>
<path d="M1649 904.5C1641.5 899 1639 893 1613 904.5C1609.33 905.667 1605.7 910.5 1620.5 920.5C1639 933 1656.5 910 1649 904.5Z" stroke="white"/>
<path d="M1658.36 901.007C1647.21 892.62 1643.49 883.471 1604.84 901.007C1599.39 902.786 1593.98 910.156 1615.99 925.405C1643.49 944.466 1669.51 909.394 1658.36 901.007Z" stroke="white"/>
<path d="M1447.5 753C1356.3 774.2 1300.83 890.5 1284.5 946C1250.1 1060 1470.5 1127.17 1585 1146.5C1759.17 1142 2074.3 1109.9 1941.5 1017.5C1775.5 902 1873.5 834.5 1826.5 766C1779.5 697.5 1561.5 726.5 1447.5 753Z" stroke="white" stroke-width="2"/>
<path d="M1475 802.267C1397.82 815.452 1350.87 887.783 1337.05 922.301C1307.94 993.202 1494.47 1034.98 1591.37 1047C1711 1011.5 1662 1037 1752 988.5C1815 951.5 1835.54 852.955 1795.76 810.352C1755.98 767.749 1571.48 785.785 1475 802.267Z" stroke="white"/>
<path d="M1419 185.5C1256.2 163.5 1261.5 80 1284.5 41C1324 -24.5 1680 -32 1880 3.50002C2040 31.9 2050.67 273.667 2036 391C1937.83 395.667 1734.7 394.3 1707.5 351.5C1673.5 298 1622.5 213 1419 185.5Z" stroke="white"/>
<path d="M1719 133C1655.4 124.2 1631.83 94.3335 1628 80.5001C1635.5 40.0001 1664 36 1719 40.0001C1774 44.0002 1866.5 125.5 1904.5 182.5C1942.5 239.5 1838 258 1837 220.5C1836 183 1798.5 144 1719 133Z" stroke="white" stroke-width="2"/>
<path d="M1542.5 151C1429.96 136.265 1502.78 70.0156 1496 46.8531C1509.27 -20.96 1559.7 -27.6576 1657.03 -20.9599C1754.36 -14.2621 1943.26 50.5595 2010.5 146C2077.74 241.44 1759.77 361.29 1758 298.5C1756.23 235.71 1683.18 169.418 1542.5 151Z" stroke="white"/>
<path d="M430 935.5C288 780.7 26.5003 817.333 -86.4997 855C-191.5 954.5 -199.5 984 -143 1129C-75.139 1303.15 553.667 1322.67 919.501 1304C912.334 1251.17 876.5 1142.2 790.5 1129C683 1112.5 607.5 1129 430 935.5Z" stroke="white"/>
<path d="M405.812 988.747C322.211 897.633 160.5 895 101.729 941.365C39.9113 999.93 35.2012 1017.29 68.4651 1102.64C108.417 1205.14 478.62 1216.63 694 1205.64C689.781 1174.54 668.684 1110.41 618.052 1102.64C554.763 1092.93 510.313 1102.64 405.812 988.747Z" stroke="white" stroke-width="2"/>
<path d="M326.601 1021.75C278.329 930.633 171.358 941 151.023 974.365C115.33 1032.93 112.61 1050.29 131.817 1135.64C154.885 1238.14 368.64 1249.63 493 1238.64C490.564 1207.54 478.383 1143.41 449.148 1135.64C412.605 1125.93 386.939 1135.64 326.601 1021.75Z" stroke="white"/>
</g>
<defs>
<clipPath id="clip0_141_3">
<rect width="1920" height="1080" fill="white"/>
</clipPath>
</defs>
</svg>
