<svg width="280" height="175" viewBox="0 0 280 175" fill="none" xmlns="http://www.w3.org/2000/svg">
<path d="M42 175L5.62694 77.5L78.3731 77.5L42 175Z" fill="#FF631B"/>
<circle cx="42" cy="70" r="37" fill="#FF631B"/>
<circle cx="42" cy="70" r="22" fill="#FFDFA3"/>
<rect x="67" width="213" height="38" rx="10" fill="#FF631B"/>
<path d="M81.1172 24V12.9062H83.1797V24H81.1172ZM81.1172 24V22.1016H88.7266V24H81.1172ZM81.1172 19.3984V17.4922H87.3203V19.3984H81.1172ZM81.1172 14.8047V12.9062H88.7266V14.8047H81.1172ZM95.9297 24V18.3906C95.9297 17.8177 95.763 17.5312 95.4297 17.5312C95.0547 17.5312 94.8672 17.8411 94.8672 18.4609L94.3047 16.75H95.0078C95.0547 16.3802 95.1979 16.0911 95.4375 15.8828C95.6823 15.6693 96.0026 15.5625 96.3984 15.5625C96.9557 15.5625 97.362 15.7161 97.6172 16.0234C97.8776 16.3307 98.0078 16.8281 98.0078 17.5156V24H95.9297ZM90.1172 24V15.7188H92.0156L92.2031 17.4688V24H90.1172ZM93.2969 24V18.2344C93.2969 17.7656 93.1302 17.5312 92.7969 17.5312C92.401 17.5312 92.2031 17.8411 92.2031 18.4609L91.7188 16.75H92.3125C92.4271 15.9583 92.8464 15.5625 93.5703 15.5625C93.9714 15.5625 94.2865 15.7109 94.5156 16.0078C94.75 16.3047 94.8672 16.7552 94.8672 17.3594V24H93.2969ZM99.9297 27.5938V15.7188H101.891L102.047 17.4688V27.5938H99.9297ZM104.258 24.1562C103.68 24.1562 103.216 24.0182 102.867 23.7422C102.518 23.4661 102.302 23.0521 102.219 22.5H101.484L102.047 19.8672C102.047 20.6693 102.167 21.2526 102.406 21.6172C102.646 21.9818 103.065 22.1641 103.664 22.1641C104.216 22.1641 104.633 21.9714 104.914 21.5859C105.201 21.2005 105.344 20.6276 105.344 19.8672C105.344 19.1328 105.198 18.5651 104.906 18.1641C104.615 17.7578 104.201 17.5547 103.664 17.5547C103.128 17.5547 102.724 17.7396 102.453 18.1094C102.182 18.4792 102.047 19.0651 102.047 19.8672L101.562 17.2188H102.172C102.271 16.6615 102.482 16.2474 102.805 15.9766C103.133 15.7005 103.612 15.5625 104.242 15.5625C105.279 15.5625 106.081 15.9375 106.648 16.6875C107.221 17.4375 107.508 18.4974 107.508 19.8672C107.508 21.2474 107.221 22.3073 106.648 23.0469C106.081 23.7865 105.284 24.1562 104.258 24.1562ZM114.047 24.1562C113.005 24.1562 112.253 23.8698 111.789 23.2969C111.331 22.724 111.102 21.8073 111.102 20.5469V12.2812H113.211V20.4688C113.211 20.8125 113.247 21.0938 113.32 21.3125C113.393 21.5312 113.534 21.6927 113.742 21.7969C113.951 21.901 114.26 21.9531 114.672 21.9531C115.13 21.9531 115.708 21.8542 116.406 21.6562L116.648 23.8281C116.206 23.9427 115.779 24.026 115.367 24.0781C114.956 24.1302 114.516 24.1562 114.047 24.1562ZM108.758 14.2266V12.2812H111.242V14.2266H108.758ZM123.711 24.0781L123.531 21.625L123.5 20.5469V18.9297C123.5 18.487 123.31 18.1641 122.93 17.9609C122.555 17.7526 121.995 17.638 121.25 17.6172L119.133 17.5625L119.289 15.6406L121.094 15.6641C122.594 15.6849 123.708 15.9818 124.438 16.5547C125.167 17.1224 125.531 17.9531 125.531 19.0469V22.1094L126.68 22.2812V24L123.711 24.0781ZM120.906 24.1562C120.026 24.1562 119.341 23.9401 118.852 23.5078C118.362 23.0755 118.117 22.4609 118.117 21.6641C118.117 20.737 118.438 20.026 119.078 19.5312C119.719 19.0365 120.628 18.7891 121.805 18.7891C122.258 18.7891 122.648 18.8125 122.977 18.8594C123.31 18.9062 123.646 18.9792 123.984 19.0781L123.641 20.7266C123.307 20.6484 123.008 20.6042 122.742 20.5938C122.477 20.5781 122.198 20.5703 121.906 20.5703C120.812 20.5703 120.266 20.8828 120.266 21.5078C120.266 21.7891 120.365 22.0052 120.562 22.1562C120.76 22.3021 121.049 22.375 121.43 22.375C121.888 22.375 122.271 22.2891 122.578 22.1172C122.885 21.9453 123.115 21.7266 123.266 21.4609C123.422 21.1953 123.5 20.9219 123.5 20.6406V20.125L123.797 22.25H123.133L123.406 22C123.391 22.4792 123.281 22.8802 123.078 23.2031C122.875 23.5208 122.589 23.7604 122.219 23.9219C121.854 24.0781 121.417 24.1562 120.906 24.1562ZM132.531 24.1562C131.026 24.1562 129.862 23.7865 129.039 23.0469C128.216 22.3021 127.805 21.2344 127.805 19.8438C127.805 18.4896 128.18 17.4375 128.93 16.6875C129.68 15.9375 130.75 15.5625 132.141 15.5625C132.995 15.5625 133.727 15.7292 134.336 16.0625C134.951 16.3958 135.385 16.8672 135.641 17.4766L134.109 18.6953C133.88 18.3359 133.589 18.0599 133.234 17.8672C132.885 17.6693 132.5 17.5703 132.078 17.5703C131.417 17.5703 130.898 17.7604 130.523 18.1406C130.154 18.5208 129.969 19.0625 129.969 19.7656C129.969 20.5417 130.206 21.1328 130.68 21.5391C131.159 21.9453 131.839 22.1484 132.719 22.1484C133.094 22.1484 133.466 22.1302 133.836 22.0938C134.211 22.0573 134.576 22.0078 134.93 21.9453L135.148 23.9219C134.727 24.0156 134.292 24.0781 133.844 24.1094C133.396 24.1406 132.958 24.1562 132.531 24.1562ZM141.594 24.1562C140.161 24.1562 139.055 23.7865 138.273 23.0469C137.492 22.3021 137.102 21.2344 137.102 19.8438C137.102 18.4896 137.432 17.4375 138.094 16.6875C138.76 15.9375 139.698 15.5625 140.906 15.5625C142.089 15.5625 143.003 15.9089 143.648 16.6016C144.294 17.2943 144.617 18.3021 144.617 19.625C144.617 20 144.602 20.3568 144.57 20.6953H138.492V19.2266H142.539C142.539 18.6693 142.396 18.2422 142.109 17.9453C141.828 17.6484 141.432 17.5 140.922 17.5C140.37 17.5 139.94 17.6979 139.633 18.0938C139.331 18.4844 139.18 19.0417 139.18 19.7656C139.18 20.5469 139.404 21.1406 139.852 21.5469C140.305 21.9531 140.948 22.1562 141.781 22.1562C142.156 22.1562 142.526 22.138 142.891 22.1016C143.255 22.0599 143.628 22.0052 144.008 21.9375L144.211 23.9375C143.68 24.0312 143.195 24.0911 142.758 24.1172C142.32 24.1432 141.932 24.1562 141.594 24.1562ZM152.18 24V18.3906C152.18 17.8177 152.013 17.5312 151.68 17.5312C151.305 17.5312 151.117 17.8411 151.117 18.4609L150.555 16.75H151.258C151.305 16.3802 151.448 16.0911 151.688 15.8828C151.932 15.6693 152.253 15.5625 152.648 15.5625C153.206 15.5625 153.612 15.7161 153.867 16.0234C154.128 16.3307 154.258 16.8281 154.258 17.5156V24H152.18ZM146.367 24V15.7188H148.266L148.453 17.4688V24H146.367ZM149.547 24V18.2344C149.547 17.7656 149.38 17.5312 149.047 17.5312C148.651 17.5312 148.453 17.8411 148.453 18.4609L147.969 16.75H148.562C148.677 15.9583 149.096 15.5625 149.82 15.5625C150.221 15.5625 150.536 15.7109 150.766 16.0078C151 16.3047 151.117 16.7552 151.117 17.3594V24H149.547ZM160.344 24.1562C158.911 24.1562 157.805 23.7865 157.023 23.0469C156.242 22.3021 155.852 21.2344 155.852 19.8438C155.852 18.4896 156.182 17.4375 156.844 16.6875C157.51 15.9375 158.448 15.5625 159.656 15.5625C160.839 15.5625 161.753 15.9089 162.398 16.6016C163.044 17.2943 163.367 18.3021 163.367 19.625C163.367 20 163.352 20.3568 163.32 20.6953H157.242V19.2266H161.289C161.289 18.6693 161.146 18.2422 160.859 17.9453C160.578 17.6484 160.182 17.5 159.672 17.5C159.12 17.5 158.69 17.6979 158.383 18.0938C158.081 18.4844 157.93 19.0417 157.93 19.7656C157.93 20.5469 158.154 21.1406 158.602 21.5469C159.055 21.9531 159.698 22.1562 160.531 22.1562C160.906 22.1562 161.276 22.138 161.641 22.1016C162.005 22.0599 162.378 22.0052 162.758 21.9375L162.961 23.9375C162.43 24.0312 161.945 24.0911 161.508 24.1172C161.07 24.1432 160.682 24.1562 160.344 24.1562ZM170.453 24V19.1328C170.453 18.6328 170.349 18.2474 170.141 17.9766C169.938 17.7057 169.646 17.5703 169.266 17.5703C168.203 17.5703 167.672 18.3359 167.672 19.8672L167.188 17.2188H167.875C167.953 16.6615 168.143 16.2474 168.445 15.9766C168.747 15.7005 169.206 15.5625 169.82 15.5625C170.695 15.5625 171.372 15.8281 171.852 16.3594C172.331 16.8906 172.57 17.6406 172.57 18.6094V24H170.453ZM165.555 24V15.7188H167.445L167.672 17.4688V24H165.555ZM180.195 24.1562C178.768 24.1562 177.737 23.8698 177.102 23.2969C176.466 22.724 176.148 21.8073 176.148 20.5469V19.4688H178.258V20.3438C178.258 20.974 178.419 21.4323 178.742 21.7188C179.07 22.0052 179.607 22.1484 180.352 22.1484C180.591 22.1484 180.846 22.1354 181.117 22.1094C181.393 22.0781 181.706 22.0391 182.055 21.9922L182.242 23.9688C181.898 24.0312 181.562 24.0781 181.234 24.1094C180.911 24.1406 180.565 24.1562 180.195 24.1562ZM176.148 19.9609V13.2188H178.258V19.9609H176.148ZM174.164 17.6641V15.7188H181.93V17.6641H174.164ZM196.367 24.1562C195.341 24.1562 194.542 23.7865 193.969 23.0469C193.401 22.3073 193.117 21.2474 193.117 19.8672C193.117 18.4974 193.401 17.4375 193.969 16.6875C194.542 15.9375 195.346 15.5625 196.383 15.5625C196.987 15.5625 197.445 15.7005 197.758 15.9766C198.076 16.2474 198.281 16.6615 198.375 17.2188H199.062L198.578 19.8672C198.578 19.0651 198.443 18.4792 198.172 18.1094C197.906 17.7396 197.503 17.5547 196.961 17.5547C196.424 17.5547 196.01 17.7578 195.719 18.1641C195.427 18.5651 195.281 19.1328 195.281 19.8672C195.281 20.6276 195.422 21.2005 195.703 21.5859C195.99 21.9714 196.409 22.1641 196.961 22.1641C197.565 22.1641 197.984 21.9818 198.219 21.6172C198.458 21.2526 198.578 20.6693 198.578 19.8672L199.141 22.5H198.406C198.323 23.0521 198.107 23.4661 197.758 23.7422C197.409 24.0182 196.945 24.1562 196.367 24.1562ZM198.883 24.0781L198.578 22.4375V12.2812H200.695V24L198.883 24.0781ZM207.219 24.1562C205.786 24.1562 204.68 23.7865 203.898 23.0469C203.117 22.3021 202.727 21.2344 202.727 19.8438C202.727 18.4896 203.057 17.4375 203.719 16.6875C204.385 15.9375 205.323 15.5625 206.531 15.5625C207.714 15.5625 208.628 15.9089 209.273 16.6016C209.919 17.2943 210.242 18.3021 210.242 19.625C210.242 20 210.227 20.3568 210.195 20.6953H204.117V19.2266H208.164C208.164 18.6693 208.021 18.2422 207.734 17.9453C207.453 17.6484 207.057 17.5 206.547 17.5C205.995 17.5 205.565 17.6979 205.258 18.0938C204.956 18.4844 204.805 19.0417 204.805 19.7656C204.805 20.5469 205.029 21.1406 205.477 21.5469C205.93 21.9531 206.573 22.1562 207.406 22.1562C207.781 22.1562 208.151 22.138 208.516 22.1016C208.88 22.0599 209.253 22.0052 209.633 21.9375L209.836 23.9375C209.305 24.0312 208.82 24.0911 208.383 24.1172C207.945 24.1432 207.557 24.1562 207.219 24.1562ZM226.547 24.1562C225.505 24.1562 224.753 23.8698 224.289 23.2969C223.831 22.724 223.602 21.8073 223.602 20.5469V12.2812H225.711V20.4688C225.711 20.8125 225.747 21.0938 225.82 21.3125C225.893 21.5312 226.034 21.6927 226.242 21.7969C226.451 21.901 226.76 21.9531 227.172 21.9531C227.63 21.9531 228.208 21.8542 228.906 21.6562L229.148 23.8281C228.706 23.9427 228.279 24.026 227.867 24.0781C227.456 24.1302 227.016 24.1562 226.547 24.1562ZM221.258 14.2266V12.2812H223.742V14.2266H221.258ZM234.305 19.1172L232.883 17.7734L233.82 16.7969C234.003 16.6094 234.133 16.4297 234.211 16.2578C234.289 16.0859 234.328 15.9115 234.328 15.7344C234.328 15.4583 234.25 15.2578 234.094 15.1328C233.938 15.0026 233.695 14.9375 233.367 14.9375H232.859V12.9062H233.602C234.534 12.9062 235.221 13.1224 235.664 13.5547C236.107 13.987 236.328 14.6615 236.328 15.5781C236.328 16.099 236.224 16.5807 236.016 17.0234C235.807 17.4609 235.495 17.8958 235.078 18.3281L234.305 19.1172ZM240.492 24V12.9062H242.555V24H240.492ZM240.492 24V22.1016H248.102V24H240.492ZM240.492 19.3984V17.4922H246.695V19.3984H240.492ZM240.492 14.8047V12.9062H248.102V14.8047H240.492ZM251.836 24L248.969 12.9062H251.102L253.367 22.1484H253.508L255.773 12.9062H257.906L255.039 24H251.836ZM258.344 24L261.547 12.9062H264.078L267.281 24H265.055L262.883 15.6172H262.742L260.57 24H258.344ZM259.961 21.8984V19.9922H265.586V21.8984H259.961Z" fill="white"/>
</svg>
